<?xml version="1.0" encoding="utf-8"?>
<!-- Generator: Adobe Illustrator 22.0.1, SVG Export Plug-In . SVG Version: 6.00 Build 0)  -->
<svg version="1.1" id="Capa_1" xmlns="http://www.w3.org/2000/svg" xmlns:xlink="http://www.w3.org/1999/xlink" x="0px" y="0px"
	 viewBox="0 0 150.5 70.7" style="enable-background:new 0 0 150.5 70.7;" xml:space="preserve">
<style type="text/css">
	.st0{fill:#FFFFFF;}
</style>
<g>
	<path class="st0" d="M59.9,25c0.3,0.1,0.5,0.2,0.8,0.2c0.3,0,0.5,0,0.7,0c0.2,0,0.5,0,0.7-0.1c0.2,0,0.4-0.1,0.6-0.1v-3.2
		c-0.2,0-0.4-0.1-0.6-0.1c-0.2,0-0.4,0-0.6,0c-0.8,0-1.4,0.1-1.8,0.4C59.2,22.5,59,23,59,23.6c0,0.4,0.1,0.7,0.3,1
		C59.4,24.8,59.7,24.9,59.9,25"/>
	<path class="st0" d="M50.4,18.2c-0.4-0.5-0.9-0.7-1.6-0.7c-0.8,0-1.4,0.2-1.8,0.7c-0.4,0.4-0.7,1.1-0.7,1.9h4.9
		C51,19.3,50.8,18.7,50.4,18.2"/>
	<path class="st0" d="M66.8,2.2c-4.2-2.1-10.4,0-10.4,0c-24.9,8.1-24.6,7.9-30.7,10c-0.2,0.1-0.5,0.2-0.6,0.2
		c-0.3,0-0.6-0.3-0.6-0.6c0-0.2,0.1-0.3,0.2-0.4c0.1-0.1,0.2-0.1,0.2-0.1s4.5-2.8,8.7-5.4c1-0.6,1.7-1,2.6-1.5
		c0.7-0.4,2.9-1.6,2.9-2.9c0-0.8-0.6-1.5-1.5-1.6c0,0-0.3,0-0.3,0l-1.2,0H20.2l0,0H15c-3.7,0-6.4,1.1-8.3,2.2C2.7,4.8,0,9.3,0,14.5
		c0,3.8,1.5,7.3,3.8,9.9l0,0l44.7,42.3v0c2.6,2.5,6.2,4.1,10.1,4.1c8.1,0,14.6-6.6,14.6-14.7l0-43.7C73.3,8.2,70.6,4.5,66.8,2.2
		 M56.3,21.8c0.3-0.5,0.8-0.9,1.3-1.2c0.5-0.3,1.1-0.5,1.7-0.7c0.6-0.1,1.3-0.2,1.9-0.2c0.5,0,1,0,1.5,0.1v-0.3
		c0-0.4-0.1-0.7-0.2-0.9c-0.1-0.2-0.3-0.4-0.5-0.6c-0.2-0.1-0.5-0.2-0.8-0.3c-0.3,0-0.7-0.1-1.1-0.1c-0.9,0-1.8,0.2-2.8,0.5
		c-0.2-0.4-0.4-0.8-0.5-1.2c-0.1-0.4-0.2-0.8-0.2-1.3c0.7-0.2,1.4-0.4,2.1-0.5c0.7-0.1,1.4-0.2,1.9-0.2c1.7,0,3,0.4,3.9,1.2
		c1,0.8,1.4,2.1,1.4,3.8v7.2c-0.6,0.2-1.2,0.3-2,0.5c-0.8,0.2-1.7,0.2-2.7,0.2c-0.8,0-1.6-0.1-2.2-0.2c-0.7-0.1-1.3-0.4-1.7-0.7
		c-0.5-0.3-0.9-0.8-1.1-1.3c-0.3-0.5-0.4-1.2-0.4-1.9C55.8,23,56,22.3,56.3,21.8 M21.1,27.2c0,0.1,0,0.2,0,0.3
		c-0.3,0.1-0.6,0.1-0.9,0.2c-0.4,0-0.7,0.1-1,0.1c-1.2,0-2.2-0.3-3-1c-0.7-0.7-1.1-1.8-1.1-3.3V10.1c0.6-0.1,1.1-0.1,1.7-0.1
		c0.5,0,1.1,0,1.7,0.1v12.6c0,0.5,0,0.9,0.1,1.2c0.1,0.3,0.1,0.5,0.3,0.7c0.1,0.2,0.3,0.3,0.5,0.3C19.5,25,19.7,25,20,25
		c0.1,0,0.3,0,0.4,0c0.2,0,0.3,0,0.5-0.1c0.2,0.7,0.3,1.3,0.3,1.9V27.2z M26.7,27.6c-0.6,0.1-1.1,0.1-1.7,0.1
		c-0.5,0-1.1-0.1-1.7-0.1v-9.8h-1.6c0-0.2-0.1-0.4-0.1-0.7c0-0.2,0-0.5,0-0.7c0-0.4,0.1-0.9,0.1-1.3h4.9V27.6z M40.9,27.6
		c-0.6,0.1-1.2,0.1-1.7,0.1c-0.5,0-1.1-0.1-1.7-0.1v-7c0-0.9-0.1-1.5-0.4-2c-0.2-0.5-0.7-0.7-1.4-0.7c-0.3,0-0.6,0-0.8,0.1
		c-0.3,0.1-0.6,0.2-0.8,0.5c-0.2,0.2-0.4,0.6-0.6,1c-0.2,0.4-0.2,1-0.2,1.6v6.5c-0.6,0.1-1.2,0.1-1.7,0.1c-0.6,0-1.1-0.1-1.7-0.1
		V15.2c0.2-0.1,0.5-0.1,0.7-0.1c0.2,0,0.5,0,0.7,0c0.3,0,0.5,0,0.7,0c0.2,0,0.4,0.1,0.7,0.1c0,0.1,0.1,0.2,0.1,0.3
		c0,0.2,0.1,0.3,0.1,0.5c0,0.2,0.1,0.3,0.1,0.5c0,0.2,0,0.3,0,0.4c0.2-0.2,0.4-0.5,0.6-0.7c0.2-0.2,0.5-0.5,0.8-0.6
		c0.3-0.2,0.6-0.3,1-0.5c0.4-0.1,0.8-0.2,1.2-0.2c1.4,0,2.5,0.4,3.2,1.1c0.7,0.8,1.1,2,1.1,3.6V27.6z M46.4,27.4
		c-0.8-0.3-1.5-0.8-2-1.3c-0.5-0.6-0.9-1.2-1.1-2c-0.2-0.8-0.4-1.6-0.4-2.6c0-0.9,0.1-1.8,0.4-2.6c0.2-0.8,0.6-1.5,1.1-2.1
		c0.5-0.6,1.1-1.1,1.9-1.4c0.8-0.3,1.6-0.5,2.6-0.5c0.9,0,1.6,0.1,2.3,0.5c0.7,0.3,1.2,0.7,1.7,1.2c0.5,0.5,0.8,1.2,1.1,1.9
		c0.2,0.7,0.4,1.5,0.4,2.3c0,0.3,0,0.6,0,0.9c0,0.3-0.1,0.5-0.1,0.7h-8c0,1,0.4,1.7,1,2.1c0.6,0.4,1.4,0.7,2.4,0.7
		c0.5,0,1.1-0.1,1.7-0.2c0.6-0.1,1.1-0.2,1.6-0.4c0.2,0.3,0.3,0.7,0.5,1.1c0.1,0.5,0.2,0.9,0.2,1.4c-1.2,0.5-2.7,0.7-4.2,0.7
		C48.2,27.9,47.2,27.7,46.4,27.4 M66.4,58.5c0,3.9-3.3,4-3.3,4h-2.6h-3.2V42.6h-2.4h-3.2v-4.3c1.2,0,2.6-0.4,3.9-1.2
		c1.3-0.8,2.3-2.2,2.8-4.1H59h1h1.5h1.7h0.5v0c0.6,0.1,1.2,0.4,1.7,0.8c0.6,0.6,0.9,1.3,0.9,2.1V58.5z"/>
	<path class="st0" d="M88.8,33.1c0.5-0.1,0.9-0.1,1.3-0.1c0.5,0,0.9,0,1.4,0.1l2.9,7.2l3-7.2c0.4-0.1,0.8-0.1,1.2-0.1
		c0.5,0,0.9,0,1.3,0.1l0.6,12.6c-0.4,0.1-0.9,0.1-1.2,0.1c-0.4,0-0.8,0-1.2-0.1l-0.3-8.6l-2.5,5.9c-0.2,0-0.3,0-0.5,0.1
		c-0.2,0-0.4,0-0.5,0c-0.2,0-0.3,0-0.5,0c-0.1,0-0.3,0-0.5-0.1L90.8,37l-0.2,8.7c-0.4,0.1-0.7,0.1-1.1,0.1c-0.4,0-0.8,0-1.1-0.1
		L88.8,33.1z"/>
	<path class="st0" d="M104.8,41.9c0.1,0.7,0.3,1.2,0.7,1.5c0.4,0.3,1,0.5,1.8,0.5c0.4,0,0.8,0,1.2-0.1c0.4-0.1,0.8-0.2,1.2-0.3
		c0.1,0.2,0.3,0.5,0.3,0.8c0.1,0.3,0.1,0.7,0.2,1.1c-0.9,0.3-1.9,0.5-3.1,0.5c-0.8,0-1.6-0.1-2.2-0.4c-0.6-0.2-1.1-0.6-1.5-1
		c-0.4-0.4-0.7-0.9-0.9-1.5c-0.2-0.6-0.3-1.2-0.3-1.9c0-0.7,0.1-1.3,0.3-1.9c0.2-0.6,0.5-1.1,0.8-1.5c0.4-0.4,0.8-0.8,1.4-1
		c0.6-0.3,1.2-0.4,1.9-0.4c0.6,0,1.2,0.1,1.7,0.3c0.5,0.2,0.9,0.5,1.3,0.9c0.3,0.4,0.6,0.8,0.8,1.4c0.2,0.5,0.2,1.1,0.2,1.7
		c0,0.2,0,0.4,0,0.7c0,0.2,0,0.4,0,0.5H104.8z M108.3,40.2c0-0.6-0.2-1-0.5-1.4c-0.3-0.3-0.7-0.5-1.2-0.5c-0.6,0-1,0.2-1.3,0.5
		c-0.3,0.3-0.5,0.8-0.5,1.4H108.3z"/>
	<path class="st0" d="M112.9,38.5h-1.2l-0.1-0.3L115,34h0.4v2.7h2.1c0,0.2,0,0.3,0.1,0.5c0,0.1,0,0.3,0,0.4c0,0.2,0,0.3,0,0.5
		c0,0.2,0,0.3-0.1,0.5h-2.1v3.6c0,0.4,0,0.7,0.1,0.9c0.1,0.2,0.1,0.4,0.3,0.5c0.1,0.1,0.2,0.2,0.4,0.3c0.2,0,0.4,0.1,0.6,0.1
		c0.2,0,0.4,0,0.5,0c0.2,0,0.3-0.1,0.5-0.1c0.1,0.2,0.1,0.5,0.2,0.7c0,0.2,0,0.5,0,0.6c0,0.1,0,0.2,0,0.3c0,0.1,0,0.2,0,0.3
		c-0.5,0.1-1.1,0.2-1.7,0.2c-1.1,0-1.9-0.2-2.4-0.7c-0.6-0.5-0.8-1.3-0.8-2.4V38.5z"/>
	<path class="st0" d="M119.4,36.6c0.2,0,0.3-0.1,0.5-0.1c0.2,0,0.3,0,0.5,0c0.2,0,0.3,0,0.5,0c0.2,0,0.3,0.1,0.5,0.1
		c0,0.1,0.1,0.1,0.1,0.3c0,0.1,0,0.2,0.1,0.4c0,0.1,0.1,0.2,0.1,0.4c0,0.1,0,0.2,0,0.3c0.2-0.4,0.6-0.7,0.9-1
		c0.4-0.3,0.8-0.4,1.4-0.4c0.1,0,0.3,0,0.4,0c0.1,0,0.3,0,0.3,0.1c0,0.1,0.1,0.3,0.1,0.4c0,0.2,0,0.3,0,0.5c0,0.2,0,0.4,0,0.7
		c0,0.2-0.1,0.5-0.1,0.7c-0.1,0-0.3,0-0.4,0H124c-0.2,0-0.4,0-0.7,0.1c-0.2,0-0.5,0.1-0.7,0.3c-0.2,0.2-0.4,0.4-0.5,0.8
		c-0.1,0.4-0.2,0.8-0.2,1.5v4.3c-0.2,0-0.4,0.1-0.6,0.1c-0.2,0-0.4,0-0.6,0c-0.2,0-0.4,0-0.6,0c-0.2,0-0.4,0-0.6-0.1V36.6z"/>
	<path class="st0" d="M130,45.9c-0.7,0-1.4-0.1-1.9-0.4c-0.5-0.2-1-0.6-1.3-1c-0.4-0.4-0.6-0.9-0.8-1.5c-0.2-0.6-0.3-1.2-0.3-1.9
		c0-0.7,0.1-1.3,0.3-1.9c0.2-0.6,0.5-1.1,0.8-1.5c0.4-0.4,0.8-0.8,1.3-1c0.6-0.2,1.2-0.4,1.9-0.4c0.7,0,1.4,0.1,1.9,0.4
		c0.5,0.2,1,0.6,1.4,1c0.4,0.4,0.6,0.9,0.8,1.5c0.2,0.6,0.3,1.2,0.3,1.9c0,0.7-0.1,1.3-0.3,1.9c-0.2,0.6-0.5,1.1-0.8,1.5
		c-0.4,0.4-0.8,0.8-1.4,1C131.4,45.8,130.7,45.9,130,45.9 M130,44c0.7,0,1.1-0.2,1.4-0.7c0.3-0.5,0.4-1.2,0.4-2.1
		c0-0.9-0.2-1.6-0.4-2.1c-0.3-0.5-0.7-0.7-1.4-0.7c-0.6,0-1.1,0.2-1.4,0.7c-0.3,0.5-0.4,1.2-0.4,2.1c0,0.9,0.1,1.6,0.4,2.1
		C128.9,43.8,129.4,44,130,44"/>
	<path class="st0" d="M94.1,49.3c0.2,0,0.4-0.1,0.6-0.1c0.2,0,0.4,0,0.6,0c0.2,0,0.4,0,0.6,0c0.2,0,0.4,0,0.6,0.1v12.9
		c-0.5,0.2-1.1,0.3-1.7,0.4c-0.6,0.1-1.3,0.1-2.1,0.1c-0.6,0-1.2-0.1-1.8-0.3c-0.6-0.2-1.1-0.5-1.6-0.8c-0.5-0.4-0.8-0.9-1.1-1.5
		C88.1,59.6,88,58.9,88,58c0-0.7,0.1-1.3,0.3-1.9c0.2-0.6,0.5-1.1,0.9-1.6c0.4-0.5,0.9-0.8,1.5-1.1c0.6-0.3,1.3-0.4,2-0.4
		c0.2,0,0.4,0,0.7,0c0.2,0,0.4,0.1,0.7,0.1V49.3z M94.1,55.1c-0.3-0.1-0.5-0.1-0.6-0.1c-0.1,0-0.3,0-0.6,0c-0.4,0-0.7,0.1-1,0.2
		c-0.3,0.2-0.5,0.4-0.7,0.7c-0.2,0.3-0.3,0.6-0.4,1c-0.1,0.4-0.1,0.7-0.1,1.1c0,0.5,0,0.9,0.2,1.3c0.1,0.3,0.3,0.6,0.5,0.8
		c0.2,0.2,0.4,0.4,0.8,0.4c0.3,0.1,0.6,0.1,0.9,0.1c0.2,0,0.4,0,0.6,0c0.2,0,0.4-0.1,0.6-0.1V55.1z"/>
	<path class="st0" d="M101.1,58.7c0,0.7,0.3,1.3,0.7,1.6c0.5,0.3,1.1,0.5,1.8,0.5c0.4,0,0.8,0,1.3-0.1c0.4-0.1,0.8-0.2,1.2-0.3
		c0.1,0.2,0.2,0.5,0.3,0.9c0.1,0.3,0.1,0.7,0.2,1.1c-0.9,0.4-2,0.5-3.2,0.5c-0.9,0-1.6-0.1-2.2-0.4c-0.6-0.2-1.1-0.6-1.5-1
		c-0.4-0.4-0.7-0.9-0.9-1.5c-0.2-0.6-0.3-1.2-0.3-1.9c0-0.7,0.1-1.3,0.3-1.9c0.2-0.6,0.5-1.1,0.9-1.6c0.4-0.4,0.9-0.8,1.4-1.1
		c0.5-0.3,1.2-0.4,1.9-0.4c0.7,0,1.2,0.1,1.7,0.3c0.5,0.2,0.9,0.5,1.3,0.9c0.4,0.4,0.6,0.9,0.8,1.4c0.2,0.5,0.3,1.1,0.3,1.8
		c0,0.2,0,0.5,0,0.7c0,0.2,0,0.4-0.1,0.5H101.1z M104.8,56.9c0-0.6-0.2-1-0.5-1.4c-0.3-0.4-0.7-0.5-1.2-0.5c-0.6,0-1.1,0.2-1.4,0.5
		c-0.3,0.3-0.5,0.8-0.6,1.4H104.8z"/>
	<path class="st0" d="M113.2,49.6c0.4-0.1,0.9-0.1,1.3-0.1c0.4,0,0.9,0,1.3,0.1v10.7h4.5c0,0.2,0.1,0.4,0.1,0.6c0,0.2,0,0.4,0,0.5
		c0,0.2,0,0.4,0,0.6c0,0.2,0,0.4-0.1,0.6h-7.1V49.6z"/>
	<path class="st0" d="M122.5,55.2h-1.2c0-0.2-0.1-0.3-0.1-0.5c0-0.2,0-0.3,0-0.5c0-0.3,0-0.6,0.1-1h3.7v9.4
		c-0.4,0.1-0.8,0.1-1.3,0.1c-0.4,0-0.8,0-1.2-0.1V55.2z M122.1,51.6c-0.1-0.4-0.1-0.8-0.1-1.2c0-0.4,0-0.8,0.1-1.2
		c0.2,0,0.4-0.1,0.7-0.1c0.2,0,0.4,0,0.6,0c0.2,0,0.4,0,0.7,0c0.3,0,0.5,0,0.7,0.1c0,0.2,0.1,0.4,0.1,0.6c0,0.2,0,0.4,0,0.6
		c0,0.2,0,0.4,0,0.6c0,0.2,0,0.4-0.1,0.6c-0.2,0-0.4,0.1-0.7,0.1c-0.2,0-0.4,0-0.7,0c-0.2,0-0.4,0-0.6,0
		C122.5,51.7,122.3,51.7,122.1,51.6"/>
	<path class="st0" d="M127.5,53.2c0.2,0,0.3-0.1,0.5-0.1c0.2,0,0.4,0,0.6,0c0.2,0,0.4,0,0.5,0c0.2,0,0.3,0,0.5,0.1
		c0,0.1,0.1,0.1,0.1,0.3c0,0.1,0.1,0.2,0.1,0.4c0,0.1,0,0.2,0.1,0.4c0,0.1,0,0.2,0,0.3c0.1-0.2,0.2-0.4,0.4-0.5
		c0.2-0.2,0.3-0.3,0.6-0.5c0.2-0.1,0.5-0.3,0.7-0.4c0.3-0.1,0.6-0.1,0.9-0.1c1.5,0,2.4,0.6,2.8,1.7c0.2-0.4,0.6-0.8,1-1.2
		c0.4-0.3,1-0.5,1.7-0.5c1.1,0,1.8,0.3,2.3,0.9c0.5,0.6,0.7,1.5,0.7,2.7v5.9c-0.4,0.1-0.9,0.1-1.3,0.1c-0.4,0-0.9,0-1.3-0.1v-5.3
		c0-0.6-0.1-1.2-0.2-1.5c-0.2-0.4-0.5-0.5-1-0.5c-0.2,0-0.4,0-0.6,0.1c-0.2,0.1-0.4,0.2-0.5,0.3c-0.2,0.2-0.3,0.4-0.4,0.7
		c-0.1,0.3-0.2,0.7-0.2,1.1v5c-0.4,0.1-0.9,0.1-1.3,0.1c-0.4,0-0.8,0-1.3-0.1v-5.3c0-0.6-0.1-1.2-0.2-1.5c-0.2-0.4-0.5-0.5-1-0.5
		c-0.2,0-0.4,0-0.6,0.1c-0.2,0.1-0.4,0.2-0.6,0.4c-0.2,0.2-0.3,0.4-0.4,0.7c-0.1,0.3-0.1,0.7-0.1,1.2v4.9c-0.4,0.1-0.9,0.1-1.3,0.1
		c-0.4,0-0.8,0-1.3-0.1V53.2z"/>
	<path class="st0" d="M148,56.4c0-0.3,0-0.5-0.1-0.7c-0.1-0.2-0.2-0.3-0.4-0.4c-0.2-0.1-0.4-0.2-0.6-0.2c-0.2,0-0.5-0.1-0.8-0.1
		c-0.6,0-1.3,0.1-2.1,0.4c-0.2-0.3-0.3-0.6-0.4-0.9c-0.1-0.3-0.1-0.6-0.1-1c0.5-0.2,1.1-0.3,1.6-0.4c0.5-0.1,1-0.1,1.5-0.1
		c1.3,0,2.2,0.3,2.9,0.9c0.7,0.6,1.1,1.6,1.1,2.9v5.4c-0.4,0.1-0.9,0.3-1.5,0.4c-0.6,0.1-1.3,0.2-2,0.2c-0.6,0-1.2-0.1-1.7-0.2
		c-0.5-0.1-0.9-0.3-1.3-0.5c-0.4-0.3-0.7-0.6-0.8-1c-0.2-0.4-0.3-0.9-0.3-1.5c0-0.6,0.1-1.1,0.4-1.5c0.3-0.4,0.6-0.7,1-0.9
		c0.4-0.2,0.8-0.4,1.3-0.5c0.5-0.1,1-0.2,1.4-0.2c0.3,0,0.7,0,1.2,0.1V56.4z M148,58.3c-0.1,0-0.3,0-0.5-0.1c-0.2,0-0.3,0-0.4,0
		c-0.6,0-1.1,0.1-1.4,0.3c-0.3,0.2-0.5,0.6-0.5,1c0,0.3,0.1,0.6,0.2,0.7c0.1,0.2,0.3,0.3,0.5,0.4c0.2,0.1,0.4,0.1,0.6,0.1
		c0.2,0,0.4,0,0.5,0c0.2,0,0.4,0,0.5,0c0.2,0,0.3-0.1,0.5-0.1V58.3z"/>
</g>
</svg>
